<?xml version="1.0" standalone="no"?>
<!DOCTYPE svg PUBLIC "-//W3C//DTD SVG 20010904//EN"
 "http://www.w3.org/TR/2001/REC-SVG-20010904/DTD/svg10.dtd">
<svg version="1.0" xmlns="http://www.w3.org/2000/svg"
 width="1000.000000pt" height="1000.000000pt" viewBox="0 0 1000.000000 1000.000000"
 preserveAspectRatio="xMidYMid meet">
<metadata>
Created by potrace 1.11, written by Peter Selinger 2001-2013
</metadata>
<g transform="translate(0.000000,1000.000000) scale(0.100000,-0.100000)"
fill="#000000" stroke="none">
<path d="M2875 6273 c-32 -4 -133 -20 -178 -28 -39 -8 -185 -54 -228 -72 l-36
-15 0 -144 c0 -79 3 -144 8 -144 4 0 38 6 76 14 142 30 253 41 398 39 259 -2
378 -84 391 -270 10 -123 -42 -235 -145 -314 -81 -63 -161 -88 -301 -95 -58
-3 -108 -9 -112 -12 -4 -4 -10 -78 -13 -164 l-7 -158 93 0 c159 -1 240 -19
352 -78 184 -96 262 -267 212 -463 -37 -146 -116 -221 -285 -271 -86 -26 -303
-33 -413 -13 -93 17 -245 54 -269 66 -19 10 -25 4 -32 -37 -7 -39 -45 -233
-51 -260 -4 -18 3 -24 48 -38 28 -9 61 -18 72 -20 268 -57 297 -60 485 -61
209 0 300 14 454 72 178 67 321 180 406 323 69 114 94 211 92 348 -5 306 -216
537 -555 611 l-78 17 93 33 c170 61 303 174 374 316 19 39 37 80 39 93 3 12 8
32 11 45 14 48 12 176 -2 238 -50 213 -231 362 -519 426 -66 14 -311 25 -380
16z"/>
<path d="M4229 6213 c-1 -16 -2 -39 -4 -53 -3 -29 -17 -235 -17 -265 -1 -36 2
-46 12 -40 13 8 97 14 280 19 261 9 800 17 800 13 0 -2 -20 -41 -45 -88 -66
-123 -355 -702 -394 -789 -115 -255 -172 -386 -205 -470 -21 -52 -44 -108 -51
-125 -38 -84 -171 -481 -190 -563 -7 -33 -11 -31 120 -56 22 -4 116 -24 265
-55 88 -19 104 -19 106 -3 0 4 3 14 6 22 3 8 10 38 16 65 17 76 111 452 131
525 10 36 31 110 45 165 15 55 31 111 36 125 5 14 21 66 35 115 122 409 313
916 473 1255 30 63 35 87 37 153 l2 77 -728 0 -729 0 -1 -27z"/>
<path d="M6500 5567 c-3 -2 -39 -8 -80 -11 -92 -9 -120 -12 -157 -20 -15 -4
-37 -8 -48 -10 -11 -2 -47 -12 -80 -21 -33 -9 -70 -19 -82 -22 -21 -5 -22 -10
-22 -159 -1 -85 1 -154 4 -154 2 0 37 9 77 19 40 11 89 22 108 25 19 3 46 8
59 10 38 8 161 19 231 20 137 3 243 -30 308 -95 63 -62 88 -138 90 -265 l1
-80 -98 -3 c-55 -1 -107 -3 -118 -5 -10 -2 -52 -7 -93 -12 -99 -11 -89 -10
-135 -18 -307 -58 -502 -210 -554 -431 -42 -182 4 -361 121 -471 203 -189 613
-172 892 38 55 42 66 45 66 24 0 -8 10 -32 22 -53 58 -103 122 -138 253 -137
99 1 168 22 235 72 l36 27 -1 140 c-1 77 -3 141 -4 143 0 2 -16 -8 -33 -21
-56 -42 -102 -50 -124 -21 -11 14 -11 52 -1 706 3 136 1 269 -4 295 -50 272
-203 414 -514 478 -39 8 -348 19 -355 12z m396 -1188 c-4 -219 6 -196 -121
-258 -92 -45 -157 -61 -231 -56 -61 4 -102 23 -137 65 -69 81 -39 251 58 324
31 24 131 74 145 73 3 0 28 5 55 11 57 14 140 26 197 29 l38 3 -4 -191z"/>
</g>
</svg>
